# xmcd
#
# Track frame offsets: 
#        150
#        17682
#        34491
#        53326
#        68237
#        84900
#        100035
#        118863
#        138555
#        154591
#        173260
#        191275
#        210150
#        227158
#        242525
#        259325
#
# Disc length: 3720 seconds
#
# Revision: 0
# Processed by: cddbd v1.5.2PL0 Copyright (c) Steve Scherf et al.
# Submitted via: ExactAudioCopyFreeDBPlugin 1.0
#
DISCID=c20e8610
DTITLE=32B - STE20试音极品TESTCD
DYEAR=2015
DGENRE=STE
TTITLE0=远方的客人请你留下来
TTITLE1=北京的金山上
TTITLE2=社员都是向阳花
TTITLE3=回娘家
TTITLE4=春天里
TTITLE5=读书郎
TTITLE6=让我们荡起双桨
TTITLE7=小白杨
TTITLE8=为咱亲人补军装
TTITLE9=金瓶似的小山
TTITLE10=幸福不是毛毛雨
TTITLE11=铃儿响叮当
TTITLE12=八月桂花遍地开
TTITLE13=在银色的月光下
TTITLE14=珊瑚颂
TTITLE15=我们的生活充满阳光
EXTD=
EXTT0=
EXTT1=
EXTT2=
EXTT3=
EXTT4=
EXTT5=
EXTT6=
EXTT7=
EXTT8=
EXTT9=
EXTT10=
EXTT11=
EXTT12=
EXTT13=
EXTT14=
EXTT15=
PLAYORDER=
